<svg width="458" height="116" viewBox="0 0 458 116" fill="none" xmlns="http://www.w3.org/2000/svg">
<rect x="10" y="49" width="17" height="49" fill="black"/>
<path d="M55.4736 39.1501L37.3292 17.9082L4.5255 51.5808L16.7895 65.9385L55.4736 39.1501Z" fill="black" stroke="black" stroke-width="2.19672"/>
<circle opacity="0.5" cx="52.7321" cy="23.2753" r="15.6205" transform="rotate(49.0926 52.7321 23.2753)" fill="black" stroke="black"/>
<path d="M77.23 98.74C70.0767 98.74 64.502 96.742 60.506 92.746C56.51 88.7007 54.512 82.9287 54.512 75.43V46.2H64.132V75.06C64.132 85.2227 68.5227 90.304 77.304 90.304C86.036 90.304 90.402 85.2227 90.402 75.06V46.2H99.874V75.43C99.874 82.9287 97.876 88.7007 93.88 92.746C89.9333 96.742 84.3833 98.74 77.23 98.74ZM159.375 46.2V98H151.457L122.893 62.924V98H113.347V46.2H121.265L149.829 81.276V46.2H159.375ZM197.231 98.74C192.001 98.74 187.265 97.6053 183.023 95.336C178.829 93.0173 175.524 89.8353 173.107 85.79C170.739 81.7447 169.555 77.1813 169.555 72.1C169.555 67.0187 170.763 62.4553 173.181 58.41C175.598 54.3647 178.903 51.2073 183.097 48.938C187.34 46.6193 192.076 45.46 197.305 45.46C201.547 45.46 205.42 46.2 208.923 47.68C212.426 49.16 215.386 51.306 217.803 54.118L211.587 59.964C207.838 55.9187 203.225 53.896 197.749 53.896C194.197 53.896 191.015 54.6853 188.203 56.264C185.391 57.7933 183.195 59.9393 181.617 62.702C180.038 65.4647 179.249 68.5973 179.249 72.1C179.249 75.6027 180.038 78.7353 181.617 81.498C183.195 84.2607 185.391 86.4313 188.203 88.01C191.015 89.5393 194.197 90.304 197.749 90.304C203.225 90.304 207.838 88.2567 211.587 84.162L217.803 90.082C215.386 92.894 212.401 95.04 208.849 96.52C205.346 98 201.473 98.74 197.231 98.74ZM273.048 46.2V98H263.428V75.8H236.64V98H227.02V46.2H236.64V67.586H263.428V46.2H273.048ZM286.929 46.2H296.549V89.86H323.633V98H286.929V46.2ZM331.227 46.2H340.847V98H331.227V46.2ZM400.886 46.2V98H392.968L364.404 62.924V98H354.858V46.2H362.776L391.34 81.276V46.2H400.886ZM453.617 89.934V98H414.767V46.2H452.581V54.266H424.387V67.734H449.399V75.652H424.387V89.934H453.617Z" fill="black"/>
</svg>
